<?xml version="1.0" standalone="no"?>
<!DOCTYPE svg PUBLIC "-//W3C//DTD SVG 20010904//EN"
 "http://www.w3.org/TR/2001/REC-SVG-20010904/DTD/svg10.dtd">
<svg version="1.0" xmlns="http://www.w3.org/2000/svg"
 width="500.000000pt" height="500.000000pt" viewBox="0 0 500.000000 500.000000"
 preserveAspectRatio="xMidYMid meet">

<g transform="translate(0.000000,500.000000) scale(0.100000,-0.100000)"
fill="#000000" stroke="none">
<path d="M2303 4967 c-62 -38 -96 -71 -38 -37 22 13 57 32 78 42 20 10 37 21
37 23 0 12 -29 1 -77 -28z"/>
<path d="M2450 4958 c-88 -47 -236 -144 -247 -161 -4 -6 11 0 33 13 129 78
264 152 297 162 20 6 37 15 37 20 0 18 -49 5 -120 -34z"/>
<path d="M3399 4954 c24 -27 49 -63 56 -80 14 -33 21 -37 120 -50 83 -11 126
-32 177 -84 27 -28 51 -50 53 -50 38 0 -120 170 -185 199 -25 11 -61 21 -81
21 -30 0 -44 8 -76 43 -28 30 -48 43 -73 45 l-33 4 42 -48z"/>
<path d="M3576 4981 c-3 -4 21 -12 53 -18 31 -6 88 -26 127 -44 88 -42 93 -44
69 -24 -67 55 -233 113 -249 86z"/>
<path d="M2643 4815 c-3 -9 -3 -18 -1 -21 3 -3 8 4 11 16 6 23 -1 27 -10 5z"/>
<path d="M1100 4781 c23 -14 179 -43 190 -36 7 4 7 13 0 26 -10 17 -22 19
-108 19 -60 0 -91 -4 -82 -9z"/>
<path d="M2720 4750 c0 -5 5 -10 11 -10 5 0 7 5 4 10 -3 6 -8 10 -11 10 -2 0
-4 -4 -4 -10z"/>
<path d="M2375 4691 c-201 -107 -323 -191 -478 -329 -210 -186 -428 -456 -523
-647 -56 -113 -61 -129 -43 -123 5 2 21 29 34 61 48 120 220 366 368 529 173
189 453 401 647 488 41 18 82 39 90 47 30 27 -24 12 -95 -26z"/>
<path d="M2680 4720 c-9 -6 -10 -10 -3 -10 6 0 15 5 18 10 8 12 4 12 -15 0z"/>
<path d="M2695 4690 c-3 -5 1 -10 9 -10 9 0 16 5 16 10 0 6 -4 10 -9 10 -6 0
-13 -4 -16 -10z"/>
<path d="M3170 4521 c0 -5 5 -13 10 -16 6 -3 10 -2 10 4 0 5 -4 13 -10 16 -5
3 -10 2 -10 -4z"/>
<path d="M3113 4502 c3 -13 3 -22 1 -19 -3 3 -21 -1 -40 -9 -19 -8 -34 -11
-34 -7 -1 5 -9 -9 -20 -31 -17 -34 -18 -40 -4 -54 14 -13 18 -12 41 11 22 21
24 29 14 41 -10 12 -9 14 10 9 15 -4 20 -3 15 5 -5 8 -2 10 8 6 9 -3 16 -1 16
5 0 6 11 11 25 11 16 0 25 6 25 15 0 8 -5 15 -11 15 -5 0 -7 -6 -3 -12 4 -7
-5 -2 -21 12 l-28 25 6 -23z"/>
<path d="M3211 4483 c-1 -12 -5 -24 -10 -27 -5 -4 -7 3 -4 14 3 12 0 20 -7 20
-8 0 -11 -11 -8 -30 3 -18 -1 -35 -9 -42 -11 -9 -12 -13 -1 -19 9 -6 7 -9 -7
-9 -25 0 -95 -61 -95 -82 0 -9 7 -18 15 -22 17 -6 75 3 75 13 0 14 52 61 62
55 6 -4 9 13 6 50 -1 31 0 56 5 56 4 0 7 7 7 16 0 8 -4 13 -9 10 -5 -4 -12 0
-14 6 -3 7 -6 3 -6 -9z"/>
<path d="M2789 4362 c-94 -62 -210 -186 -304 -327 -74 -113 -158 -258 -170
-297 -4 -11 -21 -44 -38 -72 -52 -88 -118 -227 -159 -336 -64 -172 -167 -600
-184 -763 -4 -37 -12 -71 -18 -76 -27 -21 -148 -61 -185 -61 -23 0 -41 -4 -41
-10 0 -21 118 -32 189 -17 32 7 33 6 27 -21 -12 -56 -28 -573 -23 -732 9 -275
52 -493 127 -645 16 -33 27 -61 25 -63 -8 -8 -77 32 -119 69 -108 95 -211 293
-250 479 -38 181 -68 543 -59 723 4 72 2 107 -5 107 -17 0 -33 -73 -57 -259
-23 -179 -15 -474 19 -698 7 -46 9 -83 6 -83 -11 0 -75 145 -98 220 -35 115
-46 216 -46 435 0 218 12 335 54 513 23 95 25 121 10 106 -6 -6 -17 -48 -26
-95 -18 -98 -39 -137 -128 -241 -73 -85 -145 -143 -159 -129 -5 5 5 35 26 73
75 136 89 202 126 606 7 73 16 113 30 138 24 40 26 48 10 38 -18 -11 -95 -181
-129 -284 -36 -110 -67 -247 -76 -340 -13 -127 -25 -99 -20 43 11 262 77 490
238 824 28 59 67 134 86 166 19 32 31 61 28 64 -3 3 -13 -9 -23 -26 -35 -63
-44 -69 -29 -21 51 168 155 351 313 554 29 37 53 73 53 80 -2 26 -167 -195
-273 -366 -32 -51 -78 -120 -102 -153 -152 -204 -344 -573 -426 -818 -27 -81
-36 -98 -56 -103 -13 -4 -26 -4 -29 -2 -7 7 22 136 56 255 35 119 117 325 185
466 50 104 56 142 9 60 -15 -26 -40 -70 -56 -96 -16 -27 -79 -141 -140 -255
-132 -245 -218 -378 -290 -448 -48 -47 -63 -55 -163 -85 -60 -18 -114 -39
-120 -46 -5 -6 -35 -22 -65 -33 -106 -42 -210 -102 -274 -162 l-66 -60 0 -712
0 -712 32 -50 c51 -79 153 -301 186 -404 43 -135 45 -146 26 -165 -16 -15 -15
-20 6 -66 l23 -49 613 0 612 0 11 68 c16 101 39 292 51 432 13 157 30 681 23
709 -9 36 5 23 25 -23 11 -24 18 -54 16 -67 -2 -13 -8 -118 -14 -234 -6 -116
-13 -257 -16 -315 -3 -58 -14 -186 -25 -285 -11 -99 -23 -204 -26 -232 l-6
-53 380 0 380 0 7 167 c4 92 9 170 12 172 3 3 10 -1 15 -9 6 -10 8 -73 4 -173
l-7 -157 276 0 277 0 -22 29 c-18 24 -21 39 -17 89 3 50 9 64 35 91 17 17 36
31 42 31 41 0 56 -136 22 -203 l-19 -37 609 0 c689 0 631 -8 550 80 -23 25
-41 49 -41 53 0 4 -23 55 -50 112 -28 57 -50 116 -50 130 0 14 -6 41 -14 59
-8 20 -12 51 -9 78 5 40 2 48 -30 81 -19 20 -39 37 -45 37 -5 0 -24 24 -40 54
-17 29 -41 62 -54 72 -13 11 -30 28 -38 39 -14 20 -14 20 7 1 l22 -18 -20 53
c-12 30 -24 71 -27 92 l-7 39 -28 -22 c-15 -12 -27 -19 -27 -16 0 3 -10 2 -22
-3 -46 -17 -78 -21 -78 -11 0 5 7 10 16 10 9 0 32 16 51 35 19 19 38 35 41 35
17 1 64 80 81 136 21 67 41 194 40 252 0 32 -1 34 -9 15 -7 -17 -17 -23 -37
-22 -17 1 -21 3 -10 6 20 5 24 50 3 50 -8 0 -12 -8 -9 -21 3 -14 2 -17 -4 -8
-7 8 -14 -4 -26 -41 -21 -67 -93 -209 -157 -311 -69 -110 -85 -166 -84 -306 1
-75 6 -131 17 -162 18 -56 8 -61 -26 -15 -56 73 -94 189 -84 250 4 23 -2 14
-23 -30 -39 -84 -103 -177 -143 -208 -19 -14 -37 -25 -40 -25 -4 0 5 25 20 55
18 36 33 55 45 55 12 0 15 5 11 17 -4 10 -2 14 4 10 16 -10 27 9 60 103 51
140 133 466 133 524 0 14 5 26 10 26 6 0 10 -10 10 -22 0 -47 -30 -284 -40
-317 -5 -19 -8 -36 -6 -38 3 -3 81 115 124 187 57 98 118 301 147 495 13 86
18 100 50 138 50 57 129 223 156 327 12 47 46 136 76 198 29 62 56 127 59 145
4 19 20 45 43 65 l36 33 -40 -23 -40 -22 54 59 c70 78 117 151 159 250 32 78
78 243 69 252 -3 2 -23 -29 -45 -70 -53 -96 -81 -119 -37 -30 31 64 105 264
105 285 0 19 -18 -3 -58 -69 -51 -87 -147 -192 -226 -247 -72 -51 -90 -58
-122 -50 -24 6 -23 7 24 63 27 31 61 74 77 96 16 22 63 76 105 120 42 44 95
107 117 141 48 70 96 179 90 202 -3 11 -10 3 -21 -23 -74 -174 -154 -283 -289
-394 -88 -72 -317 -215 -317 -198 0 19 49 137 94 227 96 192 205 343 337 464
70 65 73 87 4 30 -61 -49 -185 -198 -252 -301 -61 -94 -144 -254 -172 -334
-24 -66 -27 -37 -6 61 30 142 100 285 197 402 51 61 60 93 12 42 -87 -94 -169
-243 -209 -378 -14 -49 -30 -95 -35 -101 -13 -16 -131 -52 -195 -60 -27 -4
-59 -9 -69 -12 -18 -5 105 118 126 126 5 2 20 -7 34 -20 27 -25 32 -11 8 26
-14 22 -14 24 5 35 12 6 21 15 21 21 0 5 -11 3 -23 -6 -22 -14 -25 -14 -41 4
-16 18 -16 20 18 41 20 12 36 26 36 31 0 10 -16 2 -55 -26 -18 -13 -24 -11
-62 26 -24 22 -43 43 -43 46 0 3 35 38 78 78 42 40 97 99 121 133 51 69 104
162 93 162 -4 0 -41 -34 -82 -76 -86 -88 -176 -159 -252 -199 l-54 -28 -73 35
-74 35 57 43 c56 43 73 70 19 32 -15 -10 -48 -29 -72 -42 -41 -21 -49 -21
-123 -10 -82 12 -110 8 -67 -9 13 -5 38 -14 54 -21 26 -10 28 -13 13 -21 -27
-15 -216 -89 -228 -89 -12 0 23 56 107 170 78 106 239 243 448 382 83 55 150
105 150 111 0 22 -46 19 -98 -7 -180 -89 -464 -377 -602 -607 -153 -257 -234
-495 -238 -701 -1 -48 -5 -84 -9 -80 -12 12 -38 182 -38 252 0 128 50 359 109
509 23 57 24 93 1 52 -21 -41 -80 -221 -96 -295 -8 -38 -27 -96 -44 -130 -113
-239 -430 -477 -665 -500 -50 -5 -56 -4 -35 5 14 7 57 27 95 45 202 94 403
314 549 602 38 74 41 82 27 82 -5 0 -18 -23 -30 -51 -60 -138 -204 -343 -323
-456 -60 -59 -147 -128 -152 -122 -1 2 9 54 24 114 25 104 26 108 34 72 10
-53 22 -39 30 35 9 88 50 237 93 338 115 267 325 531 628 787 27 23 47 45 43
48 -18 18 -307 -259 -428 -410 -174 -218 -268 -395 -325 -609 l-24 -91 0 75
c-1 154 67 400 170 616 100 209 394 606 598 809 117 116 108 141 -20 57z m368
-1059 c29 -15 53 -30 53 -34 0 -3 -17 -11 -39 -17 -42 -13 -191 -16 -191 -4 1
6 107 79 119 81 2 1 28 -11 58 -26z m236 -143 c20 -14 37 -28 37 -31 0 -9 -46
-27 -100 -39 -55 -12 -140 -13 -140 -2 0 5 17 18 38 30 20 11 53 34 72 50 19
17 40 27 45 24 6 -4 27 -18 48 -32z m-543 -37 c0 -7 -4 -13 -9 -13 -11 0 25
-44 105 -127 33 -34 66 -63 73 -63 7 0 10 4 7 9 -3 5 5 12 19 15 13 3 40 20
59 36 18 17 38 30 42 30 5 0 18 -15 28 -33 16 -26 20 -29 24 -13 3 15 8 13 34
-15 28 -33 29 -33 24 -8 -5 24 -2 26 60 40 36 9 67 12 70 8 6 -11 -89 -76
-138 -93 l-43 -15 60 0 c62 -1 226 22 267 37 12 5 36 12 53 16 l29 7 -19 -22
c-23 -25 -131 -79 -160 -79 -11 0 -27 -5 -35 -10 -11 -7 -5 -10 23 -10 52 0
39 -16 -29 -36 -31 -9 -53 -18 -51 -20 7 -8 202 14 232 26 44 17 40 5 -8 -28
-24 -17 -58 -47 -75 -67 -27 -30 -32 -44 -32 -85 0 -27 5 -61 12 -75 20 -44
26 -27 10 30 -8 30 -12 58 -9 62 4 4 20 -6 37 -22 l29 -28 44 26 c24 14 49 33
57 41 14 18 40 21 40 6 0 -5 -4 -10 -10 -10 -5 0 -10 -4 -10 -10 0 -5 7 -10
16 -10 10 0 6 -8 -14 -25 -17 -14 -34 -25 -38 -26 -5 0 -36 -43 -69 -95 -101
-159 -193 -238 -367 -315 -104 -46 -415 -149 -448 -149 -48 0 -162 145 -231
295 -18 39 -34 75 -35 80 -1 6 -9 29 -18 53 -27 74 -30 135 -11 214 22 92 35
107 35 42 0 -68 25 -177 56 -252 30 -70 42 -78 19 -12 -8 23 -15 59 -14 79 0
32 3 28 26 -39 14 -41 30 -81 35 -87 21 -26 27 -12 12 30 -24 68 -29 218 -10
322 35 186 104 356 167 409 29 25 31 25 54 8 14 -9 25 -23 25 -29z m58 15 c7
-7 12 -19 12 -29 0 -27 39 -69 66 -69 21 0 24 -5 24 -35 0 -45 -17 -45 -65 -4
-40 35 -59 67 -70 117 -7 34 9 44 33 20z m111 -17 c8 -14 6 -22 -9 -36 -23
-20 -40 -12 -40 19 0 39 31 51 49 17z m445 -17 c23 -9 20 -22 -11 -38 -27 -13
-109 -39 -102 -31 5 5 94 74 96 74 1 1 8 -2 17 -5z m-344 -80 c0 -21 -28 -17
-40 5 -17 33 -12 43 15 25 14 -9 25 -23 25 -30z m512 -146 c-10 -10 -108 -38
-132 -37 -8 0 3 9 26 20 22 11 56 32 75 48 l34 29 3 -25 c2 -14 -1 -30 -6 -35z
m141 -39 c-9 -9 -29 -16 -56 -18 -5 -1 -6 -5 -2 -10 3 -5 1 -12 -4 -15 -5 -4
-8 1 -7 9 3 19 9 25 36 30 12 2 25 7 28 10 3 3 8 5 11 5 3 0 0 -5 -6 -11z m77
5 c0 -5 -64 -34 -76 -34 -4 0 1 9 11 20 16 18 65 29 65 14z m-48 -114 c-18
-17 -38 -30 -45 -29 -9 0 -9 2 1 6 6 2 12 9 12 14 0 4 -7 6 -15 3 -8 -4 -15
-1 -15 4 0 14 37 25 51 16 8 -4 9 -3 5 4 -5 8 1 12 16 12 22 -1 21 -2 -10 -30z
m-212 -14 c0 -22 -29 -41 -42 -28 -9 9 -7 17 7 32 18 20 35 18 35 -4z m53 -41
c1 -5 -6 -11 -15 -13 -11 -2 -18 3 -18 13 0 17 30 18 33 0z m-1308 -61 c-20
-86 -55 -330 -55 -384 l0 -45 31 38 c17 20 36 37 43 37 6 0 22 -19 33 -42 12
-24 32 -58 44 -77 16 -23 18 -32 8 -29 -8 3 -22 1 -32 -4 -16 -8 -16 -12 -5
-26 11 -15 11 -15 -2 -5 -8 6 -33 18 -55 26 -22 8 -47 17 -55 21 -13 5 -15 -6
-12 -76 6 -167 33 -281 99 -412 24 -47 -1 -21 -56 58 -61 88 -92 155 -128 275
-21 72 -26 112 -30 253 -3 91 -2 199 1 240 l7 73 54 39 c29 21 68 53 86 72 18
19 34 32 35 31 2 -2 -3 -30 -11 -63z m1217 32 c10 -15 -1 -26 -25 -26 -23 0
-52 34 -42 50 6 10 55 -8 67 -24z m-1453 -262 c-19 -95 -22 -158 -29 -499 -7
-342 0 -588 16 -604 2 -2 4 19 4 48 0 32 4 50 10 46 6 -3 10 -2 10 4 0 6 9 19
20 29 20 19 22 44 6 71 -5 7 -5 16 0 20 5 3 15 18 21 33 11 25 11 27 -16 26
-15 -1 -36 4 -46 10 -14 7 -7 9 30 5 35 -5 46 -3 41 6 -4 6 -16 9 -27 6 -36
-12 -19 6 24 24 23 10 66 34 94 54 29 20 55 32 58 28 9 -15 -101 -269 -176
-409 -27 -50 -38 -80 -33 -94 4 -15 3 -18 -7 -13 -8 6 -28 -10 -60 -46 l-47
-54 -11 26 c-14 39 -25 107 -13 91 7 -11 10 -11 15 2 3 8 2 18 -3 21 -16 10
-12 28 4 22 10 -4 16 2 18 16 2 12 9 21 16 20 14 -3 14 -1 6 21 -3 9 -10 13
-15 10 -5 -3 -9 0 -9 5 0 26 29 8 40 -24 6 -19 15 -37 20 -40 5 -3 -2 26 -15
64 -38 114 -57 250 -57 411 1 80 5 170 11 200 9 53 7 70 -5 58 -21 -22 -63
-372 -65 -548 -3 -192 -19 -37 -25 240 -5 196 -2 301 11 455 26 314 15 282
115 331 47 23 86 40 88 39 2 -2 -7 -52 -19 -111z m-939 -308 c0 -17 -51 -36
-79 -29 -29 7 -16 23 19 23 16 0 32 5 35 10 9 15 25 12 25 -4z m2574 -60 c-15
-31 -29 -55 -31 -52 -9 8 19 91 34 103 26 20 26 9 -3 -51z m-2442 -47 c24 -6
60 -9 80 -6 l38 5 0 -59 c0 -55 -1 -59 -24 -59 -75 0 -173 87 -201 179 -6 21
-3 20 29 -12 21 -21 54 -41 78 -48z m1375 -471 c-3 -8 -6 -5 -6 6 -1 11 2 17
5 13 3 -3 4 -12 1 -19z m33 -9 c0 8 2 12 5 9 6 -6 -24 -110 -36 -122 -13 -15
-11 68 3 99 8 18 14 22 20 13 6 -10 8 -10 8 1z m-1087 -89 c-3 -11 -7 -20 -9
-20 -2 0 -4 9 -4 20 0 11 4 20 9 20 5 0 7 -9 4 -20z m23 -79 c-3 -20 -6 -54
-7 -76 l-2 -40 -8 45 c-4 25 -8 62 -8 82 -1 30 2 36 15 31 12 -5 15 -14 10
-42z m-190 -475 c15 -21 20 -136 7 -136 -5 0 -35 -5 -68 -10 -33 -5 -123 -15
-200 -21 -77 -6 -187 -17 -244 -25 -137 -18 -131 -19 -131 16 0 23 5 31 23 34
55 11 336 39 448 45 124 6 124 6 124 31 0 25 -1 25 -85 23 -80 -1 -169 -9
-400 -34 -120 -13 -114 -14 -118 14 -3 22 2 24 135 46 180 29 287 40 401 38
80 -2 96 -5 108 -21z m1327 -257 c-4 -15 -8 -17 -14 -8 -6 11 4 28 18 29 0 0
-1 -9 -4 -21z m-213 -490 c0 -14 -23 -59 -31 -59 -9 0 -39 75 -39 101 0 19 2
19 35 -7 19 -14 35 -30 35 -35z"/>
<path d="M3575 2560 c3 -5 8 -10 11 -10 2 0 4 5 4 10 0 6 -5 10 -11 10 -5 0
-7 -4 -4 -10z"/>
<path d="M3428 2414 c-46 -24 -69 -44 -48 -44 6 0 29 12 53 26 50 32 52 33 46
38 -2 2 -25 -7 -51 -20z"/>
<path d="M2842 2348 c-24 -24 -13 -66 28 -109 37 -39 42 -41 80 -35 22 3 65
16 96 27 l56 21 -33 34 c-51 53 -196 93 -227 62z"/>
<path d="M2146 1394 c-4 -9 -4 -19 -1 -22 2 -3 7 3 11 12 4 9 4 19 1 22 -2 3
-7 -3 -11 -12z"/>
<path d="M1663 4273 c-123 -138 -202 -252 -272 -391 -49 -99 -103 -257 -99
-291 3 -19 10 -7 26 49 76 251 204 469 391 663 25 26 40 47 34 47 -6 0 -42
-35 -80 -77z"/>
<path d="M4373 4247 c14 -33 56 -51 102 -45 19 2 10 10 -45 40 l-70 37 13 -32z"/>
<path d="M4670 4170 c20 -13 43 -13 35 0 -3 6 -16 10 -28 10 -18 0 -19 -2 -7
-10z"/>
<path d="M1410 4144 c-17 -15 -37 -39 -46 -55 -8 -16 -21 -29 -30 -29 -8 0
-13 -4 -9 -9 3 -6 -4 -15 -15 -21 -12 -7 -19 -18 -16 -25 3 -8 0 -28 -5 -45
-9 -26 -13 -28 -31 -19 -17 9 -25 6 -50 -20 -16 -17 -27 -35 -23 -40 7 -13 45
24 45 44 0 17 16 20 25 6 3 -5 -5 -18 -18 -28 -12 -10 -29 -33 -36 -50 -7 -18
-17 -30 -22 -27 -5 3 -6 -1 -3 -9 3 -8 -5 -27 -18 -43 -13 -16 -32 -46 -43
-66 -10 -20 -23 -34 -27 -32 -5 3 -7 2 -6 -3 4 -13 -48 -94 -56 -86 -4 4 -4 1
-1 -8 3 -8 -3 -26 -15 -39 -11 -13 -20 -18 -20 -12 0 7 -4 12 -9 12 -4 0 -7
-12 -5 -27 2 -16 1 -22 -2 -15 -3 6 -11 12 -17 12 -6 0 -4 -7 5 -16 15 -15 13
-22 -22 -93 -21 -42 -49 -102 -63 -132 -23 -53 -47 -83 -47 -59 0 15 -47 -11
-86 -47 -30 -28 -31 -32 -33 -120 -1 -50 2 -94 7 -97 6 -3 9 -24 8 -46 -1 -22
1 -40 4 -40 4 0 36 75 73 168 166 421 261 593 523 938 67 89 127 171 133 183
17 31 -9 28 -49 -5z"/>
<path d="M1273 3979 c-2 -23 3 -25 10 -4 4 8 3 16 -1 19 -4 3 -9 -4 -9 -15z"/>
<path d="M3725 3987 c11 -7 21 -20 23 -31 2 -12 -1 -16 -9 -10 -8 4 -10 3 -5
-5 4 -6 12 -9 17 -6 5 4 9 -5 9 -19 0 -40 15 -30 17 11 1 28 -1 34 -8 23 -8
-11 -9 -8 -5 11 6 28 -7 39 -42 39 -14 -1 -14 -3 3 -13z"/>
<path d="M3725 3911 c-3 -5 -1 -12 5 -16 5 -3 10 1 10 9 0 18 -6 21 -15 7z"/>
<path d="M1154 3877 c-8 -9 -7 -16 2 -25 8 -7 15 -8 19 -2 3 6 2 10 -4 10 -6
0 -8 7 -5 15 7 18 3 19 -12 2z"/>
<path d="M870 3535 c-12 -19 -18 -40 -14 -46 4 -8 3 -9 -4 -5 -7 4 -21 -13
-37 -43 -29 -57 -34 -84 -6 -31 13 23 26 35 41 35 32 0 66 47 52 71 -10 18
-11 17 -21 -6 -7 -18 -10 -20 -10 -7 -1 9 8 26 19 37 10 10 15 22 10 25 -4 3
-18 -11 -30 -30z"/>
<path d="M741 3289 c-18 -39 -30 -73 -28 -75 2 -2 8 6 14 19 44 97 53 120 50
123 -2 3 -18 -28 -36 -67z"/>
<path d="M4426 3318 c-27 -232 -34 -264 -75 -358 -55 -123 -57 -130 -32 -100
58 71 124 297 122 419 -2 86 -7 102 -15 39z"/>
<path d="M850 3284 c0 -8 5 -12 10 -9 6 3 10 10 10 16 0 5 -4 9 -10 9 -5 0
-10 -7 -10 -16z"/>
<path d="M4277 2808 c-26 -41 -59 -117 -55 -128 2 -7 14 -3 31 10 15 12 28 18
29 13 0 -4 4 21 8 57 3 36 5 67 4 68 -1 2 -9 -7 -17 -20z"/>
<path d="M690 2676 c0 -2 8 -10 18 -17 15 -13 16 -12 3 4 -13 16 -21 21 -21
13z"/>
<path d="M560 2619 c0 -45 13 -48 39 -9 11 16 12 22 3 16 -9 -5 -15 -1 -19 13
-9 35 -23 23 -23 -20z"/>
<path d="M3904 2157 c-3 -10 -4 -42 -1 -70 23 -197 30 -248 48 -316 29 -115
73 -195 145 -266 63 -63 149 -126 168 -124 6 0 5 3 -1 6 -7 2 -13 10 -13 17 0
8 -17 25 -37 40 -104 72 -193 244 -242 466 -7 30 -17 71 -22 91 -5 20 -9 59
-9 86 0 27 -6 58 -14 69 -14 18 -15 18 -22 1z"/>
<path d="M3843 1870 c0 -97 2 -116 6 -67 3 37 3 97 0 135 -4 48 -6 29 -6 -68z"/>
<path d="M3737 1633 c-27 -148 -29 -162 -17 -134 6 14 16 21 25 17 13 -4 15
11 15 99 0 58 -2 105 -4 105 -2 0 -11 -39 -19 -87z"/>
<path d="M3351 904 c-7 -26 -10 -48 -7 -51 5 -5 11 14 21 65 10 49 -1 38 -14
-14z"/>
</g>
</svg>
